<svg width="231" height="51" viewBox="0 0 231 51" fill="none" xmlns="http://www.w3.org/2000/svg">
<path d="M18.76 11.344V31H13.972V22.908H6.524V31H1.736V11.344H6.524V19.044H13.972V11.344H18.76ZM22.6645 23.16C22.6645 21.5547 22.9631 20.1453 23.5605 18.932C24.1765 17.7187 25.0071 16.7853 26.0525 16.132C27.0978 15.4787 28.2645 15.152 29.5525 15.152C30.6538 15.152 31.6151 15.376 32.4365 15.824C33.2765 16.272 33.9205 16.86 34.3685 17.588V15.376H39.1565V31H34.3685V28.788C33.9018 29.516 33.2485 30.104 32.4085 30.552C31.5871 31 30.6258 31.224 29.5245 31.224C28.2551 31.224 27.0978 30.8973 26.0525 30.244C25.0071 29.572 24.1765 28.6293 23.5605 27.416C22.9631 26.184 22.6645 24.7653 22.6645 23.16ZM34.3685 23.188C34.3685 21.9933 34.0325 21.0507 33.3605 20.36C32.7071 19.6693 31.9045 19.324 30.9525 19.324C30.0005 19.324 29.1885 19.6693 28.5165 20.36C27.8631 21.032 27.5365 21.9653 27.5365 23.16C27.5365 24.3547 27.8631 25.3067 28.5165 26.016C29.1885 26.7067 30.0005 27.052 30.9525 27.052C31.9045 27.052 32.7071 26.7067 33.3605 26.016C34.0325 25.3253 34.3685 24.3827 34.3685 23.188ZM48.8084 17.588C49.275 16.86 49.919 16.272 50.7404 15.824C51.5617 15.376 52.523 15.152 53.6244 15.152C54.9124 15.152 56.079 15.4787 57.1244 16.132C58.1697 16.7853 58.991 17.7187 59.5884 18.932C60.2044 20.1453 60.5124 21.5547 60.5124 23.16C60.5124 24.7653 60.2044 26.184 59.5884 27.416C58.991 28.6293 58.1697 29.572 57.1244 30.244C56.079 30.8973 54.9124 31.224 53.6244 31.224C52.5417 31.224 51.5804 31 50.7404 30.552C49.919 30.104 49.275 29.5253 48.8084 28.816V38.448H44.0204V15.376H48.8084V17.588ZM55.6404 23.16C55.6404 21.9653 55.3044 21.032 54.6324 20.36C53.979 19.6693 53.167 19.324 52.1964 19.324C51.2444 19.324 50.4324 19.6693 49.7604 20.36C49.107 21.0507 48.7804 21.9933 48.7804 23.188C48.7804 24.3827 49.107 25.3253 49.7604 26.016C50.4324 26.7067 51.2444 27.052 52.1964 27.052C53.1484 27.052 53.9604 26.7067 54.6324 26.016C55.3044 25.3067 55.6404 24.3547 55.6404 23.16ZM69.2123 17.588C69.6789 16.86 70.3229 16.272 71.1443 15.824C71.9656 15.376 72.9269 15.152 74.0283 15.152C75.3163 15.152 76.4829 15.4787 77.5283 16.132C78.5736 16.7853 79.3949 17.7187 79.9923 18.932C80.6083 20.1453 80.9163 21.5547 80.9163 23.16C80.9163 24.7653 80.6083 26.184 79.9923 27.416C79.3949 28.6293 78.5736 29.572 77.5283 30.244C76.4829 30.8973 75.3163 31.224 74.0283 31.224C72.9456 31.224 71.9843 31 71.1443 30.552C70.3229 30.104 69.6789 29.5253 69.2123 28.816V38.448H64.4243V15.376H69.2123V17.588ZM76.0443 23.16C76.0443 21.9653 75.7083 21.032 75.0363 20.36C74.3829 19.6693 73.5709 19.324 72.6003 19.324C71.6483 19.324 70.8363 19.6693 70.1643 20.36C69.5109 21.0507 69.1843 21.9933 69.1843 23.188C69.1843 24.3827 69.5109 25.3253 70.1643 26.016C70.8363 26.7067 71.6483 27.052 72.6003 27.052C73.5523 27.052 74.3643 26.7067 75.0363 26.016C75.7083 25.3067 76.0443 24.3547 76.0443 23.16ZM100.788 15.376L90.9882 38.42H85.8362L89.4202 30.468L83.0642 15.376H88.4122L92.0242 25.148L95.6082 15.376H100.788ZM121.277 31L117.189 23.58H116.041V31H111.253V11.344H119.289C120.839 11.344 122.155 11.6147 123.237 12.156C124.339 12.6973 125.16 13.444 125.701 14.396C126.243 15.3293 126.513 16.3747 126.513 17.532C126.513 18.8387 126.14 20.0053 125.393 21.032C124.665 22.0587 123.583 22.7867 122.145 23.216L126.681 31H121.277ZM116.041 20.192H119.009C119.887 20.192 120.54 19.9773 120.969 19.548C121.417 19.1187 121.641 18.512 121.641 17.728C121.641 16.9813 121.417 16.3933 120.969 15.964C120.54 15.5347 119.887 15.32 119.009 15.32H116.041V20.192ZM145.647 22.936C145.647 23.384 145.619 23.8507 145.563 24.336H134.727C134.801 25.3067 135.109 26.0533 135.651 26.576C136.211 27.08 136.892 27.332 137.695 27.332C138.889 27.332 139.72 26.828 140.187 25.82H145.283C145.021 26.8467 144.545 27.7707 143.855 28.592C143.183 29.4133 142.333 30.0573 141.307 30.524C140.28 30.9907 139.132 31.224 137.863 31.224C136.332 31.224 134.969 30.8973 133.775 30.244C132.58 29.5907 131.647 28.6573 130.975 27.444C130.303 26.2307 129.967 24.812 129.967 23.188C129.967 21.564 130.293 20.1453 130.947 18.932C131.619 17.7187 132.552 16.7853 133.747 16.132C134.941 15.4787 136.313 15.152 137.863 15.152C139.375 15.152 140.719 15.4693 141.895 16.104C143.071 16.7387 143.985 17.644 144.639 18.82C145.311 19.996 145.647 21.368 145.647 22.936ZM140.747 21.676C140.747 20.8547 140.467 20.2013 139.907 19.716C139.347 19.2307 138.647 18.988 137.807 18.988C137.004 18.988 136.323 19.2213 135.763 19.688C135.221 20.1547 134.885 20.8173 134.755 21.676H140.747ZM148.621 23.188C148.621 21.564 148.947 20.1453 149.601 18.932C150.273 17.7187 151.197 16.7853 152.373 16.132C153.567 15.4787 154.93 15.152 156.461 15.152C158.421 15.152 160.054 15.6653 161.361 16.692C162.686 17.7187 163.554 19.1653 163.965 21.032H158.869C158.439 19.8373 157.609 19.24 156.377 19.24C155.499 19.24 154.799 19.5853 154.277 20.276C153.754 20.948 153.493 21.9187 153.493 23.188C153.493 24.4573 153.754 25.4373 154.277 26.128C154.799 26.8 155.499 27.136 156.377 27.136C157.609 27.136 158.439 26.5387 158.869 25.344H163.965C163.554 27.1733 162.686 28.6107 161.361 29.656C160.035 30.7013 158.402 31.224 156.461 31.224C154.93 31.224 153.567 30.8973 152.373 30.244C151.197 29.5907 150.273 28.6573 149.601 27.444C148.947 26.2307 148.621 24.812 148.621 23.188ZM170.334 13.752C169.494 13.752 168.803 13.5093 168.262 13.024C167.739 12.52 167.478 11.904 167.478 11.176C167.478 10.4293 167.739 9.81333 168.262 9.328C168.803 8.824 169.494 8.572 170.334 8.572C171.155 8.572 171.827 8.824 172.35 9.328C172.891 9.81333 173.162 10.4293 173.162 11.176C173.162 11.904 172.891 12.52 172.35 13.024C171.827 13.5093 171.155 13.752 170.334 13.752ZM172.714 15.376V31H167.926V15.376H172.714ZM182.372 17.588C182.838 16.86 183.482 16.272 184.304 15.824C185.125 15.376 186.086 15.152 187.188 15.152C188.476 15.152 189.642 15.4787 190.688 16.132C191.733 16.7853 192.554 17.7187 193.152 18.932C193.768 20.1453 194.076 21.5547 194.076 23.16C194.076 24.7653 193.768 26.184 193.152 27.416C192.554 28.6293 191.733 29.572 190.688 30.244C189.642 30.8973 188.476 31.224 187.188 31.224C186.105 31.224 185.144 31 184.304 30.552C183.482 30.104 182.838 29.5253 182.372 28.816V38.448H177.584V15.376H182.372V17.588ZM189.204 23.16C189.204 21.9653 188.868 21.032 188.196 20.36C187.542 19.6693 186.73 19.324 185.76 19.324C184.808 19.324 183.996 19.6693 183.324 20.36C182.67 21.0507 182.344 21.9933 182.344 23.188C182.344 24.3827 182.67 25.3253 183.324 26.016C183.996 26.7067 184.808 27.052 185.76 27.052C186.712 27.052 187.524 26.7067 188.196 26.016C188.868 25.3067 189.204 24.3547 189.204 23.16ZM212.716 22.936C212.716 23.384 212.688 23.8507 212.632 24.336H201.796C201.87 25.3067 202.178 26.0533 202.72 26.576C203.28 27.08 203.961 27.332 204.764 27.332C205.958 27.332 206.789 26.828 207.256 25.82H212.352C212.09 26.8467 211.614 27.7707 210.924 28.592C210.252 29.4133 209.402 30.0573 208.376 30.524C207.349 30.9907 206.201 31.224 204.932 31.224C203.401 31.224 202.038 30.8973 200.844 30.244C199.649 29.5907 198.716 28.6573 198.044 27.444C197.372 26.2307 197.036 24.812 197.036 23.188C197.036 21.564 197.362 20.1453 198.016 18.932C198.688 17.7187 199.621 16.7853 200.816 16.132C202.01 15.4787 203.382 15.152 204.932 15.152C206.444 15.152 207.788 15.4693 208.964 16.104C210.14 16.7387 211.054 17.644 211.708 18.82C212.38 19.996 212.716 21.368 212.716 22.936ZM207.816 21.676C207.816 20.8547 207.536 20.2013 206.976 19.716C206.416 19.2307 205.716 18.988 204.876 18.988C204.073 18.988 203.392 19.2213 202.832 19.688C202.29 20.1547 201.954 20.8173 201.824 21.676H207.816ZM222.997 31.224C221.635 31.224 220.421 30.9907 219.357 30.524C218.293 30.0573 217.453 29.4227 216.837 28.62C216.221 27.7987 215.876 26.884 215.801 25.876H220.533C220.589 26.4173 220.841 26.856 221.289 27.192C221.737 27.528 222.288 27.696 222.941 27.696C223.539 27.696 223.996 27.584 224.313 27.36C224.649 27.1173 224.817 26.8093 224.817 26.436C224.817 25.988 224.584 25.6613 224.117 25.456C223.651 25.232 222.895 24.9893 221.849 24.728C220.729 24.4667 219.796 24.196 219.049 23.916C218.303 23.6173 217.659 23.16 217.117 22.544C216.576 21.9093 216.305 21.06 216.305 19.996C216.305 19.1 216.548 18.288 217.033 17.56C217.537 16.8133 218.265 16.2253 219.217 15.796C220.188 15.3667 221.336 15.152 222.661 15.152C224.621 15.152 226.161 15.6373 227.281 16.608C228.42 17.5787 229.073 18.8667 229.241 20.472H224.817C224.743 19.9307 224.5 19.5013 224.089 19.184C223.697 18.8667 223.175 18.708 222.521 18.708C221.961 18.708 221.532 18.82 221.233 19.044C220.935 19.2493 220.785 19.5387 220.785 19.912C220.785 20.36 221.019 20.696 221.485 20.92C221.971 21.144 222.717 21.368 223.725 21.592C224.883 21.8907 225.825 22.1893 226.553 22.488C227.281 22.768 227.916 23.2347 228.457 23.888C229.017 24.5227 229.307 25.3813 229.325 26.464C229.325 27.3787 229.064 28.2 228.541 28.928C228.037 29.6373 227.3 30.1973 226.329 30.608C225.377 31.0187 224.267 31.224 222.997 31.224Z" fill="#152545"/>
<path d="M49.5 43C59.5496 51.539 64.4648 50.5754 72.5 43" stroke="#152545" stroke-width="3"/>
</svg>
